<svg width="171" height="70" viewBox="0 0 171 70" fill="none" xmlns="http://www.w3.org/2000/svg">
<path d="M71.992 7.112V8.832C70.1573 8.88933 68.7527 9.11866 67.778 9.52C66.8033 9.864 66.144 10.552 65.8 11.584C65.5133 12.5587 65.37 14.1067 65.37 16.228V58.884C65.37 60.948 65.542 62.496 65.886 63.528C66.23 64.56 66.8607 65.248 67.778 65.592C68.7527 65.936 70.1573 66.1653 71.992 66.28V68C70.5013 67.8853 68.6093 67.828 66.316 67.828C64.0227 67.7707 61.7007 67.742 59.35 67.742C56.77 67.742 54.3333 67.7707 52.04 67.828C49.804 67.828 47.998 67.8853 46.622 68V66.28C48.5713 66.1653 50.0333 65.936 51.008 65.592C52.04 65.248 52.728 64.56 53.072 63.528C53.416 62.496 53.588 60.948 53.588 58.884V12.1L54.19 12.186L32.862 68.258H31.486L8.782 12.616V55.272C8.782 58.024 8.954 60.174 9.298 61.722C9.642 63.2127 10.3873 64.302 11.534 64.99C12.738 65.6207 14.544 66.0507 16.952 66.28V68C15.8627 67.8853 14.458 67.828 12.738 67.828C11.018 67.7707 9.384 67.742 7.836 67.742C6.46 67.742 5.05533 67.7707 3.622 67.828C2.246 67.828 1.09933 67.8853 0.182 68V66.28C2.074 66.0507 3.47867 65.6207 4.396 64.99C5.37067 64.3593 6.00133 63.3273 6.288 61.894C6.632 60.4607 6.804 58.4827 6.804 55.96V16.228C6.804 14.1067 6.632 12.5587 6.288 11.584C6.00133 10.552 5.37067 9.864 4.396 9.52C3.47867 9.11866 2.074 8.88933 0.182 8.832V7.112C1.09933 7.16933 2.246 7.22666 3.622 7.284C5.05533 7.34133 6.46 7.37 7.836 7.37C9.95733 7.37 12.0213 7.34133 14.028 7.284C16.0347 7.22666 17.812 7.16933 19.36 7.112L37.85 53.294L35.958 54.842L53.932 7.37C54.792 7.37 55.6807 7.37 56.598 7.37C57.5727 7.37 58.49 7.37 59.35 7.37C61.7007 7.37 64.0227 7.34133 66.316 7.284C68.6093 7.22666 70.5013 7.16933 71.992 7.112ZM97.6738 22.334C101.63 22.334 105.127 23.1367 108.166 24.742C111.262 26.29 113.698 28.784 115.476 32.224C117.31 35.664 118.228 40.1933 118.228 45.812C118.228 51.4307 117.31 55.96 115.476 59.4C113.698 62.84 111.262 65.334 108.166 66.882C105.127 68.43 101.63 69.204 97.6738 69.204C93.7178 69.204 90.1918 68.43 87.0958 66.882C83.9998 65.334 81.5631 62.84 79.7858 59.4C78.0084 55.96 77.1198 51.4307 77.1198 45.812C77.1198 40.1933 78.0084 35.664 79.7858 32.224C81.5631 28.784 83.9998 26.29 87.0958 24.742C90.1918 23.1367 93.7178 22.334 97.6738 22.334ZM97.6738 24.054C94.9791 24.054 92.7718 25.774 91.0518 29.214C89.3891 32.5967 88.5578 38.1293 88.5578 45.812C88.5578 53.4947 89.3891 59.0273 91.0518 62.41C92.7718 65.7927 94.9791 67.484 97.6738 67.484C100.311 67.484 102.49 65.7927 104.21 62.41C105.93 59.0273 106.79 53.4947 106.79 45.812C106.79 38.1293 105.93 32.5967 104.21 29.214C102.49 25.774 100.311 24.054 97.6738 24.054ZM165.063 0.661996V58.626C165.063 61.206 165.493 63.1267 166.353 64.388C167.213 65.592 168.732 66.194 170.911 66.194V68C169.133 67.828 167.356 67.742 165.579 67.742C163.457 67.742 161.451 67.828 159.559 68C157.667 68.172 155.889 68.4873 154.227 68.946V10.982C154.227 8.402 153.797 6.51 152.937 5.306C152.134 4.04466 150.615 3.414 148.379 3.414V1.608C150.213 1.78 151.991 1.866 153.711 1.866C155.889 1.866 157.925 1.78 159.817 1.608C161.709 1.37866 163.457 1.06333 165.063 0.661996ZM144.509 22.334C147.031 22.334 149.296 22.8213 151.303 23.796C153.309 24.7707 154.8 26.4047 155.775 28.698L154.743 29.558C153.94 27.8953 152.851 26.6627 151.475 25.86C150.099 25.0573 148.551 24.656 146.831 24.656C143.735 24.656 141.241 26.4047 139.349 29.902C137.514 33.342 136.597 38.6453 136.597 45.812C136.597 50.628 136.969 54.5267 137.715 57.508C138.46 60.432 139.521 62.5533 140.897 63.872C142.33 65.1907 144.021 65.85 145.971 65.85C148.035 65.85 149.898 65.0187 151.561 63.356C153.223 61.636 154.198 59.1993 154.485 56.046L155.087 58.454C154.341 61.9513 152.937 64.6173 150.873 66.452C148.809 68.2867 146.085 69.204 142.703 69.204C139.263 69.204 136.195 68.3727 133.501 66.71C130.863 64.99 128.799 62.41 127.309 58.97C125.875 55.4727 125.159 51.058 125.159 45.726C125.159 40.5087 126.019 36.18 127.739 32.74C129.459 29.2427 131.781 26.634 134.705 24.914C137.629 23.194 140.897 22.334 144.509 22.334Z" fill="black"/>
</svg>
